<svg width="75" height="70" viewBox="0 0 75 70" fill="none" xmlns="http://www.w3.org/2000/svg">
<g filter="url(#filter0_d_370726_494)">
<path d="M64.5094 61.5527H10.4906C6.91816 61.5527 4 58.691 4 55.159V10.841C4 7.30898 6.91816 4.44727 10.4906 4.44727H45.9404C46.9611 4.44727 47.7855 5.25937 47.7855 6.26484C47.7855 7.27031 46.9611 8.08242 45.9404 8.08242H10.4906C8.94648 8.08242 7.69023 9.31992 7.69023 10.841V55.159C7.69023 56.6801 8.94648 57.9176 10.4906 57.9176H64.5094C66.0535 57.9176 67.3098 56.6801 67.3098 55.159V10.841C67.3098 9.31992 66.0535 8.08242 64.5094 8.08242H56.5793C55.5586 8.08242 54.7342 7.27031 54.7342 6.26484C54.7342 5.25937 55.5586 4.44727 56.5793 4.44727H64.5094C68.0949 4.44727 71 7.32187 71 10.841V55.159C71 58.691 68.0818 61.5527 64.5094 61.5527Z" fill="#2D527C"/>
<path d="M57.8748 53.5348H22.1371C21.1164 53.5348 20.292 52.7227 20.292 51.7172C20.292 50.7117 21.1164 49.8996 22.1371 49.8996H57.8748C58.5815 49.8996 59.1572 49.3324 59.1572 48.6363V17.3766C59.1572 16.6805 58.5815 16.1133 57.8748 16.1133H22.1371C21.1164 16.1133 20.292 15.3012 20.292 14.2957C20.292 13.2902 21.1164 12.4781 22.1371 12.4781H57.8748C60.6229 12.4781 62.8605 14.6824 62.8605 17.3894V48.6363C62.8605 51.3305 60.6229 53.5348 57.8748 53.5348Z" fill="#2D527C"/>
<path d="M13.9846 53.5348C12.9639 53.5348 12.1395 52.7227 12.1395 51.7172V14.2828C12.1395 13.2774 12.9639 12.4652 13.9846 12.4652C15.0053 12.4652 15.8297 13.2774 15.8297 14.2828V51.7172C15.8428 52.7227 15.0053 53.5348 13.9846 53.5348Z" fill="#2D527C"/>
<path d="M46.6733 47.502C38.56 47.502 31.9516 40.9922 31.9516 33C31.9516 25.0078 38.56 18.498 46.6733 18.498C54.7865 18.498 61.3949 25.0078 61.3949 33C61.3949 40.9922 54.7865 47.502 46.6733 47.502ZM46.6733 22.1332C40.5883 22.1332 35.6418 27.0059 35.6418 33C35.6418 38.9941 40.5883 43.8668 46.6733 43.8668C52.7582 43.8668 57.7047 38.9941 57.7047 33C57.7047 27.0059 52.7582 22.1332 46.6733 22.1332ZM46.6733 39.5613C42.9961 39.5613 40.0125 36.6223 40.0125 33C40.0125 29.3777 42.9961 26.4387 46.6733 26.4387C50.3504 26.4387 53.334 29.3777 53.334 33C53.334 36.6223 50.3504 39.5613 46.6733 39.5613ZM46.6733 30.0738C45.0375 30.0738 43.7027 31.3887 43.7027 33C43.7027 34.6113 45.0375 35.9262 46.6733 35.9262C48.309 35.9262 49.6438 34.6113 49.6438 33C49.6438 31.3887 48.309 30.0738 46.6733 30.0738Z" fill="#F0BF5F"/>
<path d="M22.124 39.7805H13.9845V45.6715H22.124V39.7805Z" fill="#CEE8FA"/>
<path d="M22.1372 47.4891H13.9846C12.9639 47.4891 12.1395 46.677 12.1395 45.6715V39.7805C12.1395 38.775 12.9639 37.9629 13.9846 37.9629H22.1241C23.1448 37.9629 23.9692 38.775 23.9692 39.7805V45.6715C23.9823 46.677 23.1579 47.4891 22.1372 47.4891ZM15.8428 43.8539H20.292V41.598H15.8428V43.8539Z" fill="#2D527C"/>
<path d="M22.124 20.3285H13.9845V26.2195H22.124V20.3285Z" fill="#CEE8FA"/>
<path d="M22.1372 28.0371H13.9846C12.9639 28.0371 12.1395 27.225 12.1395 26.2195V20.3285C12.1395 19.323 12.9639 18.5109 13.9846 18.5109H22.1241C23.1448 18.5109 23.9692 19.323 23.9692 20.3285V26.2195C23.9823 27.225 23.1579 28.0371 22.1372 28.0371ZM15.8428 24.4019H20.292V22.1461H15.8428V24.4019Z" fill="#2D527C"/>
<path d="M37.9842 43.377C37.5131 43.377 37.042 43.1965 36.6756 42.8484C35.9559 42.1395 35.9559 40.9793 36.6756 40.2703L41.9623 35.0625C42.6821 34.3535 43.8598 34.3535 44.5795 35.0625C45.2993 35.7715 45.2993 36.9316 44.5795 37.6406L39.2928 42.8484C38.9264 43.1965 38.4553 43.377 37.9842 43.377Z" fill="#F0BF5F"/>
<path d="M50.4159 31.1308C49.9448 31.1308 49.4737 30.9504 49.1073 30.6023C48.3875 29.8933 48.3875 28.7332 49.1073 28.0242L54.0537 23.1516C54.7735 22.4426 55.9512 22.4426 56.6709 23.1516C57.3907 23.8605 57.3907 25.0207 56.6709 25.7297L51.7245 30.6023C51.3711 30.9504 50.887 31.1308 50.4159 31.1308Z" fill="#F0BF5F"/>
<path d="M42.8391 31.0406C42.368 31.0406 41.8969 30.8601 41.5305 30.5121L36.6756 25.7297C35.9559 25.0207 35.9559 23.8605 36.6756 23.1516C37.3954 22.4426 38.5731 22.4426 39.2928 23.1516L44.1477 27.934C44.8674 28.643 44.8674 29.8031 44.1477 30.5121C43.7944 30.873 43.3102 31.0406 42.8391 31.0406Z" fill="#F0BF5F"/>
<path d="M55.3624 43.3769C54.8913 43.3769 54.4202 43.1964 54.0538 42.8484L49.1335 38.0015C48.4137 37.2925 48.4137 36.1324 49.1335 35.4234C49.8532 34.7144 51.0309 34.7144 51.7506 35.4234L56.671 40.2703C57.3907 40.9793 57.3907 42.1394 56.671 42.8484C56.3045 43.1964 55.8335 43.3769 55.3624 43.3769Z" fill="#F0BF5F"/>
</g>
<defs>
<filter id="filter0_d_370726_494" x="0" y="0" width="75" height="74" filterUnits="userSpaceOnUse" color-interpolation-filters="sRGB">
<feFlood flood-opacity="0" result="BackgroundImageFix"/>
<feColorMatrix in="SourceAlpha" type="matrix" values="0 0 0 0 0 0 0 0 0 0 0 0 0 0 0 0 0 0 127 0" result="hardAlpha"/>
<feOffset dy="4"/>
<feGaussianBlur stdDeviation="2"/>
<feComposite in2="hardAlpha" operator="out"/>
<feColorMatrix type="matrix" values="0 0 0 0 0 0 0 0 0 0 0 0 0 0 0 0 0 0 0.25 0"/>
<feBlend mode="normal" in2="BackgroundImageFix" result="effect1_dropShadow_370726_494"/>
<feBlend mode="normal" in="SourceGraphic" in2="effect1_dropShadow_370726_494" result="shape"/>
</filter>
</defs>
</svg>
